<?xml version="1.0" standalone="no"?>
<!DOCTYPE svg PUBLIC "-//W3C//DTD SVG 20010904//EN"
 "http://www.w3.org/TR/2001/REC-SVG-20010904/DTD/svg10.dtd">
<svg version="1.0" xmlns="http://www.w3.org/2000/svg"
 width="1024.000000pt" height="1024.000000pt" viewBox="0 0 1024.000000 1024.000000"
 preserveAspectRatio="xMidYMid meet">

<g transform="translate(0.000000,1024.000000) scale(0.100000,-0.100000)"
fill="#000000" stroke="none">
<path d="M2900 6760 l0 -1680 540 0 540 0 0 735 0 735 280 0 279 0 16 -30 c26
-49 131 -155 200 -200 137 -89 330 -123 488 -85 301 72 514 354 493 655 -16
242 -148 440 -364 549 -118 60 -284 78 -421 46 -138 -33 -282 -131 -371 -254
l-45 -61 -277 0 -278 0 0 635 0 635 -540 0 -540 0 0 -1680z"/>
<path d="M6038 8183 c-325 -376 -383 -443 -386 -452 -3 -8 374 -360 394 -368
7 -2 49 23 95 56 l84 60 3 -1200 2 -1199 480 0 480 0 0 1680 0 1680 -464 0
-465 0 -223 -257z"/>
<path d="M1960 3811 l0 -600 130 -3 130 -3 0 238 0 237 265 0 265 0 0 -237 0
-238 130 0 130 0 0 603 0 602 -130 0 -130 0 0 -245 0 -245 -265 0 -265 0 0
245 0 245 -130 0 -130 0 0 -599z"/>
<path d="M3328 4333 c214 -341 314 -503 369 -591 l63 -104 0 -214 0 -214 130
0 130 0 0 218 0 218 231 369 c127 204 234 376 236 383 4 9 -29 12 -143 12
l-149 0 -94 -163 c-52 -89 -120 -206 -150 -259 -31 -53 -58 -97 -61 -98 -3 0
-73 117 -155 260 l-150 260 -153 0 -152 0 48 -77z"/>
<path d="M4770 3808 l0 -603 125 3 125 3 0 190 0 189 157 0 c174 0 263 12 339
45 166 73 247 261 199 463 -20 83 -47 135 -100 187 -104 105 -194 124 -572
125 l-273 0 0 -602z m610 346 c94 -55 116 -188 44 -273 -39 -46 -103 -61 -266
-61 l-138 0 0 181 0 181 163 -3 c142 -4 166 -7 197 -25z"/>
<path d="M6050 3808 l0 -603 425 0 425 0 0 113 0 112 -300 0 -300 0 0 125 0
125 270 0 270 0 0 115 0 115 -270 0 -270 0 0 130 0 130 295 0 295 0 0 120 0
120 -420 0 -420 0 0 -602z"/>
<path d="M7267 4403 c-7 -7 -10 -1187 -3 -1194 2 -2 61 -3 130 -1 l126 3 0
195 0 194 98 0 98 0 124 -195 124 -194 143 -3 c79 -2 143 -2 143 0 0 5 -155
250 -212 334 -32 48 -58 89 -58 91 0 2 18 9 40 16 56 17 152 108 181 173 21
46 24 68 24 173 0 114 -2 123 -32 187 -57 122 -164 197 -308 218 -77 11 -608
14 -618 3z m617 -249 c59 -31 79 -64 84 -138 4 -68 -8 -105 -50 -142 -39 -36
-84 -44 -244 -44 l-154 0 0 176 0 176 163 -3 c140 -4 167 -7 201 -25z"/>
<path d="M3678 2890 c-229 -39 -411 -196 -488 -420 -30 -89 -37 -231 -16 -330
46 -219 201 -393 416 -466 86 -30 311 -27 405 4 332 111 504 471 386 807 -31
88 -79 161 -155 237 -140 139 -344 202 -548 168z m200 -244 c181 -48 293 -212
280 -410 -11 -176 -144 -322 -313 -344 -129 -17 -241 23 -324 113 -71 79 -95
145 -95 265 0 117 24 185 91 260 98 109 228 151 361 116z"/>
<path d="M4727 2273 l3 -598 125 -3 125 -3 2 393 3 392 180 -249 c99 -137 225
-312 281 -390 l101 -140 124 0 124 0 2 598 2 597 -125 0 -125 0 3 -390 c2
-215 0 -390 -3 -390 -4 0 -9 6 -12 13 -6 15 -509 720 -535 750 -13 14 -34 17
-146 17 l-131 0 2 -597z"/>
<path d="M6180 2270 l0 -600 420 0 420 0 0 115 0 115 -295 0 -295 0 0 125 0
125 270 0 270 0 0 115 0 115 -270 0 -270 0 0 130 0 130 290 0 290 0 0 115 0
115 -415 0 -415 0 0 -600z"/>
</g>
</svg>
